# xmcd
#
# Track frame offsets:
#	150
#	13330
#	24985
#	35972
#	47802
#	60165
#	73140
#	83245
#	94507
#	109300
#	126575
#	143997
#	156222
#	170940
#
# Disc length: 2405 seconds
#
# Revision: 1
# Processed by: cddbd v1.5.1PL2 Copyright (c) Steve Scherf et al.
# Submitted via: audiograbber 1.82.02
#
DISCID=cc09630e
DTITLE=Sam Hill - Bring on the Blues
DYEAR=1900
DGENRE=Bluegrass
TTITLE0=I Got My Broken Heart the Hard Way
TTITLE1=Bring on the Blues
TTITLE2=Never Again
TTITLE3=Howdown at Billie's
TTITLE4=When the Cold Rain is Falling
TTITLE5=Set Up For Sorrow
TTITLE6=Where the Cold Winds Blow
TTITLE7=My Sinful Past
TTITLE8=I Only Exist
TTITLE9=The Deepest Depth of Pain
TTITLE10=She's Callin' Me A Memory
TTITLE11=Fiddlin' Dave's Road Trip
TTITLE12=Freight Train Type
TTITLE13=Is There Hope For This Heartbreak
EXTD=
EXTT0=
EXTT1=
EXTT2=
EXTT3=
EXTT4=
EXTT5=
EXTT6=
EXTT7=
EXTT8=
EXTT9=
EXTT10=
EXTT11=
EXTT12=
EXTT13=
PLAYORDER=
